<?xml version="1.0" encoding="UTF-8" standalone="no"?>
<svg
   xmlns:dc="http://purl.org/dc/elements/1.1/"
   xmlns:cc="http://creativecommons.org/ns#"
   xmlns:rdf="http://www.w3.org/1999/02/22-rdf-syntax-ns#"
   xmlns:svg="http://www.w3.org/2000/svg"
   xmlns="http://www.w3.org/2000/svg"
   version="1.1"
   viewBox="0 0 100 100"
   id="svg2">
  <defs
     id="defs3" />
  <metadata
     id="metadata6">
    <rdf:RDF>
      <cc:Work
         rdf:about="">
        <dc:format>image/svg+xml</dc:format>
        <dc:type
           rdf:resource="http://purl.org/dc/dcmitype/StillImage" />
        <dc:title></dc:title>
      </cc:Work>
    </rdf:RDF>
  </metadata>
  <g
     transform="matrix(0.20191141,0,0,0.2015306,-33.000468,-45.05503)"
     id="layer1">
    <path
       style="fill:#29334c;fill-opacity:1;stroke:none"
       d="m 256.17969,3.7734375 c 0,0 23.23839,43.4990055 21.30078,71.6406245 -1.93758,28.141598 -37.24888,50.168218 -38.46094,78.687498 -1.21205,28.51927 30.24414,70.17188 30.24414,70.17188 0,0 -19.57425,-35.89413 -11.08594,-64.00586 1.03788,-3.43724 2.50015,-6.89739 4.25196,-10.3711 a 209.104,42.44174 0 0 1 9.81445,-0.0156 209.104,42.44174 0 0 1 0.002,0 209.104,42.44174 0 0 1 32.98633,0.7832 c 2.56446,-11.86384 10.46349,-22.70789 18.38867,-33.52539 A 234.82147,66.620187 0 0 0 284.71685,115.459 c 9.11309,-13.67329 16.48586,-27.268695 14.65039,-40.416011 -3.84942,-27.57323 -43.1875,-71.2695315 -43.1875,-71.2695315 z m -90.13672,4.6660156 c 0,0 23.23835,43.5009979 21.30078,71.6425779 -1.93759,28.141619 -37.24886,50.168239 -38.46094,78.687499 -1.21206,28.51927 29.70313,67.45899 29.70313,67.45899 0,0 -19.03321,-33.18326 -10.54492,-61.29493 1.04717,-3.46805 2.52404,-6.95776 4.29687,-10.46289 a 209.104,42.44174 0 0 1 48.93945,-3.56445 c 0.006,-0.27545 -0.006,-0.55699 0.006,-0.83008 0.52051,-12.2476 7.33751,-23.29714 15.0918,-34.14844 a 234.82147,66.620187 0 0 0 -40.85742,2.78125 c 8.67231,-13.19546 15.48498,-26.304689 13.71289,-38.998042 -3.84944,-27.5732 -43.1875,-71.2714849 -43.1875,-71.2714849 z m 173.23828,2.2617189 c 0,0 23.2384,43.499025 21.30078,71.640625 -1.93759,28.141593 -37.2489,50.168243 -38.46094,78.687503 -1.21208,28.51926 28.61719,64.47656 28.61719,64.47656 0,0 -17.9473,-30.19883 -9.45898,-58.31055 1.39319,-4.61402 3.54988,-9.26745 6.15234,-13.94336 a 209.104,42.44174 0 0 1 127.8125,39.05274 209.10449,42.44184 0 0 1 -418.208984,0 209.104,42.44174 0 0 1 74.238284,-32.31836 c -0.14718,-1.78621 -0.19938,-3.54002 -0.12696,-5.24414 0.43759,-10.2961 5.32694,-19.74452 11.47852,-28.94141 a 234.82147,66.620187 0 0 0 -108.677734,56.03711 234.82147,66.620187 0 0 0 0.339843,3.19727 c -0.112026,-0.0864 -0.228446,-0.17113 -0.339843,-0.25782 5.684185,31.46391 12.438586,57.7363 19.957031,80.31446 C 2.6643403,303.12576 -4.3744469,347.79835 27.757812,390.84375 57.964853,421.05427 74.328395,413.94216 129.39062,416.24609 84.743935,405.73276 71.448156,411.4785 52.941406,381.50195 43.687833,366.51336 25.794,340.9712 67.802734,301.14258 c 19.71603,44.49165 42.737426,72.96919 65.015626,105.04883 l 16.86914,54.11132 c 26.69264,29.27043 163.12749,74.75779 242.89453,-5.12695 l 11.10547,-46.33203 c 39.99004,-59.71698 78.513,-107.33165 99.81445,-225.50195 -0.0689,0.0663 -0.14346,0.13103 -0.21289,0.19726 a 234.82147,66.620187 0 0 0 0.30078,-1.70117 234.82147,66.620187 0 0 0 -135.27539,-60.20117 c 8.88064,-13.42023 15.9562,-26.759179 14.1543,-39.666017 -3.84944,-27.57321 -43.1875,-71.269531 -43.1875,-71.269531 z m -196.68164,259.533208 26.16992,0 0,26.16796 26.16797,0 0,27.63868 -26.16797,0 0,24.69921 -26.16992,0 0,-27.63867 -26.16797,0 0,-24.69922 26.16797,0 0,-26.16796 z m 261.58398,34.23242 a 21.497183,21.021437 0 0 1 20.88282,21.02539 21.497183,21.021437 0 1 1 -42.99414,0 21.497183,21.021437 0 0 1 22.11132,-21.02539 z m -55.625,0.2832 a 21.497183,21.021437 0 0 1 20.88282,21.02539 21.497183,21.021437 0 1 1 -42.99414,0 21.497183,21.021437 0 0 1 22.11132,-21.02539 z m -58.55273,17.69141 c 21.1726,0 20.54297,2.9262 20.54297,6.53711 0,3.61089 -0.39117,6.53906 -20.54297,6.53906 -19.53739,0 -20.54102,-2.92817 -20.54102,-6.53906 0,-3.61091 -1.36344,-6.53711 20.54102,-6.53711 z m -55.12695,0.58398 c 21.1726,0 20.54101,2.9262 20.54101,6.53711 0,3.61089 -0.38921,6.53906 -20.54101,6.53906 -19.53739,0 -20.54297,-2.92817 -20.54297,-6.53906 0,-3.61091 -1.36149,-6.53711 20.54297,-6.53711 z"
       transform="translate(155.1172,219.79073)"
       id="path3907" />
  </g>
</svg>
