<?xml version="1.0" encoding="UTF-8" standalone="no"?>
<svg
   xmlns:dc="http://purl.org/dc/elements/1.1/"
   xmlns:cc="http://creativecommons.org/ns#"
   xmlns:rdf="http://www.w3.org/1999/02/22-rdf-syntax-ns#"
   xmlns:svg="http://www.w3.org/2000/svg"
   xmlns="http://www.w3.org/2000/svg"
   id="svg2"
   viewBox="0 0 512 512"
   version="1.1">
  <defs
     id="defs3" />
  <metadata
     id="metadata6">
    <rdf:RDF>
      <cc:Work
         rdf:about="">
        <dc:format>image/svg+xml</dc:format>
        <dc:type
           rdf:resource="http://purl.org/dc/dcmitype/StillImage" />
        <dc:title></dc:title>
      </cc:Work>
    </rdf:RDF>
  </metadata>
  <g
     id="layer1"
     transform="translate(-155.1172,-219.79073)">
    <path
       id="path3907"
       transform="translate(155.1172,219.79073)"
       d="M 256.17969 3.7734375 C 256.17969 3.7734375 279.41808 47.272443 277.48047 75.414062 C 275.54289 103.55566 240.23159 125.58228 239.01953 154.10156 C 237.80748 182.62083 269.26367 224.27344 269.26367 224.27344 C 269.26367 224.27344 249.68942 188.37931 258.17773 160.26758 C 259.21561 156.83034 260.67788 153.37019 262.42969 149.89648 A 209.104 42.44174 0 0 1 272.24414 149.88086 A 209.104 42.44174 0 0 1 272.24609 149.88086 A 209.104 42.44174 0 0 1 305.23242 150.66406 C 307.79688 138.80022 315.69591 127.95617 323.62109 117.13867 A 234.82147 66.620187 0 0 0 284.7168 115.45898 C 293.82989 101.78569 301.20266 88.190285 299.36719 75.042969 C 295.51777 47.469739 256.17969 3.7734375 256.17969 3.7734375 z M 166.04297 8.4394531 C 166.04297 8.4394531 189.28132 51.940451 187.34375 80.082031 C 185.40616 108.22365 150.09489 130.25027 148.88281 158.76953 C 147.67075 187.2888 178.58594 226.22852 178.58594 226.22852 C 178.58594 226.22852 159.55273 193.04526 168.04102 164.93359 C 169.08819 161.46554 170.56506 157.97583 172.33789 154.4707 A 209.104 42.44174 0 0 1 221.27734 150.90625 C 221.28302 150.6308 221.2716 150.34926 221.2832 150.07617 C 221.80371 137.82857 228.62071 126.77903 236.375 115.92773 A 234.82147 66.620187 0 0 0 195.51758 118.70898 C 204.18989 105.51352 211.00256 92.404291 209.23047 79.710938 C 205.38103 52.137738 166.04297 8.4394531 166.04297 8.4394531 z M 339.28125 10.701172 C 339.28125 10.701172 362.51965 54.200197 360.58203 82.341797 C 358.64444 110.48339 323.33313 132.51004 322.12109 161.0293 C 320.90901 189.54856 350.73828 225.50586 350.73828 225.50586 C 350.73828 225.50586 332.79098 195.30703 341.2793 167.19531 C 342.67249 162.58129 344.82918 157.92786 347.43164 153.25195 A 209.104 42.44174 0 0 1 475.24414 192.30469 A 209.10449 42.44184 0 0 1 57.035156 192.30469 A 209.104 42.44174 0 0 1 131.27344 159.98633 C 131.12626 158.20012 131.07406 156.44631 131.14648 154.74219 C 131.58407 144.44609 136.47342 134.99767 142.625 125.80078 A 234.82147 66.620187 0 0 0 33.947266 181.83789 A 234.82147 66.620187 0 0 0 34.287109 185.03516 C 34.175083 184.94871 34.058663 184.86403 33.947266 184.77734 C 39.631451 216.24125 46.385852 242.51364 53.904297 265.0918 C 2.6643403 303.12576 -4.3744469 347.79835 27.757812 390.84375 C 57.964853 421.05427 74.328395 413.94216 129.39062 416.24609 C 84.743935 405.73276 71.448156 411.4785 52.941406 381.50195 C 43.687833 366.51336 25.794 340.9712 67.802734 301.14258 C 87.518764 345.63423 110.54016 374.11177 132.81836 406.19141 L 149.6875 460.30273 C 176.38014 489.57316 312.81499 535.06052 392.58203 455.17578 L 403.6875 408.84375 C 443.67754 349.12677 482.2005 301.5121 503.50195 183.3418 C 503.43303 183.40815 503.35849 183.47283 503.28906 183.53906 A 234.82147 66.620187 0 0 0 503.58984 181.83789 A 234.82147 66.620187 0 0 0 368.31445 121.63672 C 377.19509 108.21649 384.27065 94.877541 382.46875 81.970703 C 378.61931 54.397493 339.28125 10.701172 339.28125 10.701172 z M 142.59961 270.23438 L 168.76953 270.23438 L 168.76953 296.40234 L 194.9375 296.40234 L 194.9375 324.04102 L 168.76953 324.04102 L 168.76953 348.74023 L 142.59961 348.74023 L 142.59961 321.10156 L 116.43164 321.10156 L 116.43164 296.40234 L 142.59961 296.40234 L 142.59961 270.23438 z M 404.18359 304.4668 A 21.497183 21.021437 0 0 1 425.06641 325.49219 A 21.497183 21.021437 0 1 1 382.07227 325.49219 A 21.497183 21.021437 0 0 1 404.18359 304.4668 z M 348.55859 304.75 A 21.497183 21.021437 0 0 1 369.44141 325.77539 A 21.497183 21.021437 0 1 1 326.44727 325.77539 A 21.497183 21.021437 0 0 1 348.55859 304.75 z M 290.00586 322.44141 C 311.17846 322.44141 310.54883 325.36761 310.54883 328.97852 C 310.54883 332.58941 310.15766 335.51758 290.00586 335.51758 C 270.46847 335.51758 269.46484 332.58941 269.46484 328.97852 C 269.46484 325.36761 268.1014 322.44141 290.00586 322.44141 z M 234.87891 323.02539 C 256.05151 323.02539 255.41992 325.95159 255.41992 329.5625 C 255.41992 333.17339 255.03071 336.10156 234.87891 336.10156 C 215.34152 336.10156 214.33594 333.17339 214.33594 329.5625 C 214.33594 325.95159 212.97445 323.02539 234.87891 323.02539 z "
       style="fill:#29334c;fill-opacity:1;stroke:none" />
  </g>
</svg>
