<?xml version="1.0" encoding="UTF-8" standalone="no"?>
<!-- Created with Inkscape (http://www.inkscape.org/) -->

<svg
   xmlns:dc="http://purl.org/dc/elements/1.1/"
   xmlns:cc="http://creativecommons.org/ns#"
   xmlns:rdf="http://www.w3.org/1999/02/22-rdf-syntax-ns#"
   xmlns:svg="http://www.w3.org/2000/svg"
   xmlns="http://www.w3.org/2000/svg"
   version="1.1"
   width="512"
   height="512"
   id="svg2">
  <defs
     id="defs3" />
  <metadata
     id="metadata6">
    <rdf:RDF>
      <cc:Work
         rdf:about="">
        <dc:format>image/svg+xml</dc:format>
        <dc:type
           rdf:resource="http://purl.org/dc/dcmitype/StillImage" />
        <dc:title></dc:title>
      </cc:Work>
    </rdf:RDF>
  </metadata>
  <g
     transform="translate(-155.1172,-219.79073)"
     id="layer1">
    <path
       d="m 189.06353,404.56734 c 22.49216,124.50177 61.72222,167.91975 98.87221,221.41412 l 16.86916,54.1115 c 26.69264,29.27043 163.128,74.75867 242.89504,-5.12607 l 11.10388,-46.33325 c 39.99004,-59.71698 78.51474,-107.33074 99.81619,-225.50104 -67.08142,64.58042 -377.00489,73.45391 -469.55648,1.43474 z"
       id="path3907"
       style="fill:#29334c;fill-opacity:1;stroke:none" />
    <path
       d="m 222.06309,475.94768 c -62.92532,39.86004 -73.8727,88.22245 -39.18814,134.68699 30.20704,30.21052 46.56989,23.09726 101.63217,25.40119 -44.64674,-10.51333 -57.9416,-4.767 -76.44835,-34.74355 -10.54698,-17.0836 -32.32787,-47.8731 36.16772,-97.90494 z"
       id="path3909"
       style="fill:#29334c;fill-opacity:1;stroke:none" />
    <path
       d="m 515.35713,158.43361 a 185.17857,48.57143 0 1 1 -370.35715,0 185.17857,48.57143 0 1 1 370.35715,0 z"
       transform="matrix(1.2680812,0,0,1.371592,5.1917692,184.32194)"
       id="path3911"
       style="fill:#29334c;fill-opacity:1;stroke:none" />
    <path
       d="m 501.03566,191.20714 a 166.17009,30.943415 0 1 1 -332.34018,0 166.17009,30.943415 0 1 1 332.34018,0 z"
       transform="matrix(1.2583733,0,0,1.371592,-0.12865093,149.8377)"
       id="path4014"
       style="fill:#ffffff;fill-opacity:1;stroke:none" />
    <path
       d="m 316.50895,444.70445 c 0,0 -31.45637,-41.65227 -30.24431,-70.17153 1.21208,-28.51926 36.52403,-50.5459 38.46164,-78.68753 1.93757,-28.14158 -21.3011,-71.64106 -21.3011,-71.64106 0,0 39.33767,43.69685 43.18711,71.27007 3.84942,27.57322 -32.70176,57.11204 -41.19008,85.22376 -8.48829,28.11166 11.08674,64.00629 11.08674,64.00629 z"
       id="path3933-0"
       style="fill:#ffffff;fill-opacity:1;stroke:none" />
    <path
       d="m 334.24459,448.73088 c 0,0 -31.45638,-41.65228 -30.24432,-70.17155 1.21208,-28.51926 36.52405,-50.5459 38.46164,-78.68752 1.93757,-28.14158 -21.3011,-71.64106 -21.3011,-71.64106 0,0 39.33767,43.69686 43.18711,71.27006 3.84943,27.57324 -32.70176,57.11204 -41.19007,85.22376 -8.48829,28.11167 11.08674,64.00631 11.08674,64.00631 z"
       id="path3933"
       style="fill:#29334c;fill-opacity:1;stroke:none" />
    <path
       d="m 406.64557,440.03779 c 0,0 -31.45634,-41.65225 -30.24429,-70.17151 1.21204,-28.51931 36.52401,-50.54592 38.46161,-78.68752 1.93759,-28.14163 -21.30109,-71.6411 -21.30109,-71.6411 0,0 39.33768,43.69687 43.1871,71.2701 3.84945,27.57321 -32.70175,57.11203 -41.19005,85.22371 -8.48832,28.11174 11.08672,64.00632 11.08672,64.00632 z"
       id="path3933-3-5"
       style="fill:#ffffff;fill-opacity:1;stroke:none" />
    <path
       d="m 424.38121,444.06422 c 0,0 -31.45635,-41.65226 -30.2443,-70.17153 1.21206,-28.51928 36.52402,-50.54592 38.4616,-78.68752 1.93761,-28.14162 -21.30107,-71.6411 -21.30107,-71.6411 0,0 39.33768,43.69687 43.1871,71.2701 3.84945,27.57322 -32.70174,57.11203 -41.19005,85.22373 -8.48831,28.11173 11.08672,64.00632 11.08672,64.00632 z"
       id="path3933-3"
       style="fill:#29334c;fill-opacity:1;stroke:none" />
    <path
       d="m 489.74661,446.96537 c 0,0 -31.45636,-41.65224 -30.24429,-70.1715 1.21205,-28.51927 36.524,-50.54594 38.46159,-78.68754 1.93763,-28.14159 -21.3011,-71.64106 -21.3011,-71.64106 0,0 39.33767,43.69686 43.18712,71.27008 3.84944,27.5732 -32.70173,57.11201 -41.19002,85.22372 -8.48833,28.11169 11.0867,64.0063 11.0867,64.0063 z"
       id="path3933-6-6"
       style="fill:#ffffff;fill-opacity:1;stroke:none" />
    <path
       d="m 507.48223,450.99178 c 0,0 -31.45634,-41.65225 -30.24426,-70.17151 1.21204,-28.51926 36.52399,-50.54593 38.46158,-78.68752 1.93762,-28.1416 -21.3011,-71.64106 -21.3011,-71.64106 0,0 39.33767,43.69686 43.18711,71.27007 3.84945,27.57322 -32.70173,57.11201 -41.19002,85.22372 -8.48832,28.11172 11.08669,64.0063 11.08669,64.0063 z"
       id="path3933-6"
       style="fill:#29334c;fill-opacity:1;stroke:none" />
    <path
       d="m 297.71724,516.19288 0,-26.16864 26.16863,0 0,26.16864 26.16864,0 0,27.63825 -26.16864,0 0,24.69902 -26.16863,0 0,-27.63825 -26.16864,0 0,-24.69902"
       id="path3814"
       style="fill:#ffffff;fill-opacity:1;stroke:none" />
    <path
       d="m 252.79068,181.04877 a 11.237947,10.227795 0 1 1 -22.47589,0 11.237947,10.227795 0 1 1 22.47589,0 z"
       transform="matrix(1.9129102,0,0,2.0553244,96.617106,173.16879)"
       id="path3818"
       style="fill:#ffffff;fill-opacity:1;stroke:none" />
    <path
       d="m 410.53734,549.35332 c 0,3.61089 -0.39002,6.53811 -20.54182,6.53811 -19.53739,0 -20.54182,-2.92722 -20.54182,-6.53811 0,-3.61091 -1.36264,-6.53814 20.54182,-6.53814 21.1726,0 20.54182,2.92723 20.54182,6.53814 z"
       id="path3822"
       style="fill:#ffffff;fill-opacity:1;stroke:none" />
    <path
       d="m 252.79068,181.04877 a 11.237947,10.227795 0 1 1 -22.47589,0 11.237947,10.227795 0 1 1 22.47589,0 z"
       transform="matrix(1.9129102,0,0,2.0553244,40.992227,173.45188)"
       id="path3818-6"
       style="fill:#ffffff;fill-opacity:1;stroke:none" />
    <path
       d="m 465.66525,548.77016 c 0,3.61089 -0.39001,6.53812 -20.54181,6.53812 -19.53739,0 -20.54183,-2.92723 -20.54183,-6.53812 0,-3.61091 -1.36263,-6.53814 20.54183,-6.53814 21.1726,0 20.54181,2.92723 20.54181,6.53814 z"
       id="path3822-0"
       style="fill:#ffffff;fill-opacity:1;stroke:none" />
  </g>
</svg>
