<?xml version="1.0" standalone="no"?>
<!DOCTYPE svg PUBLIC "-//W3C//DTD SVG 20010904//EN"
 "http://www.w3.org/TR/2001/REC-SVG-20010904/DTD/svg10.dtd">
<svg version="1.0" xmlns="http://www.w3.org/2000/svg"
 width="700.000000pt" height="700.000000pt" viewBox="0 0 700.000000 700.000000"
 preserveAspectRatio="xMidYMid meet">
<metadata>
Created by potrace 1.11, written by Peter Selinger 2001-2013
</metadata>
<g transform="translate(0.000000,700.000000) scale(0.100000,-0.100000)"
fill="#000000" stroke="none">
<path d="M3518 6975 c5 -11 24 -51 42 -90 156 -335 250 -664 244 -860 -5 -171
-62 -293 -283 -600 -102 -141 -141 -201 -141 -214 0 -5 -4 -11 -8 -13 -8 -3
-63 -112 -77 -153 -56 -157 -36 -348 59 -575 66 -155 235 -455 306 -540 21
-25 21 -24 0 19 -133 271 -189 611 -135 816 9 33 28 86 42 118 l26 58 302 -6
301 -6 18 58 c29 92 124 259 208 366 17 21 28 40 25 43 -6 7 -63 10 -287 19
-159 7 -243 11 -247 14 -1 0 27 49 63 109 100 167 149 315 139 427 -12 154
-110 364 -288 620 -69 100 -215 291 -263 344 -13 15 -31 36 -40 47 -15 19 -15
18 -6 -1z"/>
<path d="M2240 6915 c0 -2 13 -30 29 -62 80 -159 153 -350 215 -563 48 -164
58 -364 24 -477 -37 -124 -97 -227 -270 -466 -142 -196 -223 -350 -243 -462
-34 -191 51 -463 245 -779 55 -90 142 -217 146 -213 2 2 -8 28 -22 58 -46 93
-92 229 -109 319 -6 31 -18 106 -21 130 -7 47 -2 255 6 255 1 0 4 12 6 27 6
36 52 156 67 177 7 9 23 17 37 18 14 0 53 4 88 7 34 3 90 8 125 11 34 3 85 8
112 10 39 4 229 14 321 18 7 0 15 23 19 51 5 28 9 56 10 61 10 70 80 209 179
358 l18 27 -53 -4 c-30 -3 -105 -8 -166 -11 -62 -3 -132 -8 -155 -10 -24 -2
-78 -6 -121 -10 l-78 -6 12 23 c7 13 26 46 44 73 42 68 91 170 109 230 44 149
38 238 -29 405 -31 78 -50 115 -122 240 -27 47 -178 271 -205 305 -9 11 -47
58 -84 105 -74 94 -134 163 -134 155z"/>
<path d="M4727 6803 c39 -81 135 -314 153 -373 70 -225 89 -312 96 -439 13
-213 -28 -305 -316 -716 -128 -183 -166 -251 -200 -362 -67 -222 18 -513 256
-868 99 -148 124 -177 88 -105 -46 93 -99 259 -110 340 -3 25 -9 63 -13 85
-13 70 -4 220 19 301 11 42 36 110 55 151 l35 74 58 -5 c31 -4 73 -8 92 -11
19 -3 62 -7 95 -10 79 -7 165 -16 190 -21 11 -2 43 -7 70 -10 28 -3 73 -9 100
-14 28 -5 70 -11 95 -15 25 -3 56 -7 70 -10 14 -3 59 -11 100 -20 41 -8 87
-17 103 -19 15 -3 35 -7 45 -10 9 -3 28 -7 42 -10 145 -25 383 -102 517 -167
158 -77 231 -153 228 -235 -6 -163 -349 -319 -950 -433 -88 -16 -185 -33 -215
-37 -30 -3 -64 -8 -75 -10 -11 -3 -38 -6 -60 -9 -22 -3 -56 -7 -75 -10 -19 -3
-55 -8 -80 -10 -25 -2 -65 -7 -90 -10 -55 -6 -125 -13 -205 -20 -33 -3 -80 -7
-105 -10 -25 -2 -92 -7 -150 -10 -58 -4 -121 -9 -140 -11 -89 -9 -507 -18
-810 -18 -366 -1 -684 9 -955 29 -182 13 -211 15 -253 20 -24 3 -71 8 -105 11
-165 13 -454 53 -657 90 -354 66 -567 128 -755 220 -242 119 -287 233 -143
363 110 99 421 210 803 285 l159 32 3 68 c5 108 50 237 124 355 16 25 29 48
29 52 0 4 -19 2 -43 -3 -23 -5 -53 -12 -67 -14 -242 -43 -673 -164 -818 -230
-29 -13 -55 -24 -58 -24 -13 0 -196 -95 -254 -133 -113 -73 -202 -158 -244
-232 -28 -51 -47 -142 -41 -193 26 -197 154 -727 245 -1021 l33 -104 -29 -26
c-17 -14 -50 -42 -74 -61 -78 -60 -263 -253 -322 -335 -89 -126 -160 -273
-187 -390 -6 -27 -14 -61 -17 -75 -12 -51 -11 -251 1 -317 20 -105 23 -118 51
-195 53 -147 175 -350 255 -423 130 -119 230 -185 355 -233 84 -32 106 -38
189 -48 28 -3 61 -8 75 -10 25 -4 217 -11 560 -18 l185 -4 -95 23 c-52 13
-111 26 -130 29 -30 5 -202 37 -280 52 -89 18 -185 49 -250 82 -137 68 -281
240 -390 467 -55 115 -70 173 -73 271 -4 210 86 397 307 631 58 62 76 74 76
52 0 -16 171 -354 218 -433 23 -37 42 -70 42 -72 0 -9 121 -199 218 -344 110
-162 382 -551 392 -560 20 -18 46 -76 76 -173 19 -62 58 -184 85 -272 28 -88
51 -164 53 -170 2 -5 5 -17 9 -25 3 -8 16 -51 28 -95 27 -92 55 -125 172 -203
237 -159 571 -288 962 -371 55 -12 114 -23 130 -25 17 -2 89 -12 160 -22 188
-25 593 -25 760 1 17 3 44 7 60 9 451 69 851 259 1168 553 l47 44 50 206 c28
113 53 219 56 236 2 17 7 33 9 37 2 3 6 17 8 31 16 84 43 160 71 199 133 184
513 768 621 955 245 423 447 919 589 1438 90 331 165 697 160 777 -6 78 -46
152 -123 230 -158 158 -426 288 -826 404 -137 40 -370 96 -458 111 -17 3 -90
17 -162 30 -71 13 -152 26 -180 30 -86 11 -137 19 -152 24 -2 1 16 31 39 69
137 223 182 383 148 530 -18 75 -83 235 -120 295 -17 27 -30 50 -30 52 0 15
-153 243 -238 355 -64 83 -201 250 -205 250 -2 0 16 -39 40 -87z m-2544 -3562
l87 -1 -1 -167 c0 -93 0 -176 0 -185 1 -16 17 -18 184 -18 l184 0 0 -194 0
-194 -183 1 -184 2 -1 -100 c0 -55 0 -134 0 -176 l0 -75 -178 0 c-99 1 -183 4
-187 8 -4 4 -7 91 -6 193 0 134 -3 185 -11 186 -7 1 -88 2 -182 2 l-170 2 -3
172 -2 173 182 2 183 3 2 165 c1 91 2 173 2 182 1 14 13 18 79 20 42 2 86 2
97 1 11 -1 59 -2 108 -2z m3529 -513 c114 -53 172 -143 173 -268 0 -80 -20
-134 -69 -191 -57 -66 -168 -111 -252 -102 -164 17 -274 134 -277 293 -4 216
224 359 425 268z m-776 -7 c184 -97 222 -324 80 -467 -212 -212 -574 -23 -511
267 20 94 94 177 192 214 57 22 186 14 239 -14z m-783 -225 c90 -9 117 -28
117 -83 0 -73 -61 -90 -315 -87 -213 2 -265 19 -265 88 0 59 30 75 148 83 48
3 88 6 89 7 4 3 170 -3 226 -8z m-760 -11 c61 -8 92 -26 95 -59 10 -88 -32
-107 -246 -110 -157 -3 -247 6 -291 27 -52 25 -53 109 -3 129 52 21 323 29
445 13z"/>
</g>
</svg>
